<?xml version="1.0" encoding="UTF-8" standalone="no"?>
<!-- Created with Inkscape (http://www.inkscape.org/) -->

<svg
   xmlns:dc="http://purl.org/dc/elements/1.1/"
   xmlns:cc="http://creativecommons.org/ns#"
   xmlns:rdf="http://www.w3.org/1999/02/22-rdf-syntax-ns#"
   xmlns:svg="http://www.w3.org/2000/svg"
   xmlns="http://www.w3.org/2000/svg"
   xmlns:sodipodi="http://sodipodi.sourceforge.net/DTD/sodipodi-0.dtd"
   xmlns:inkscape="http://www.inkscape.org/namespaces/inkscape"
   width="35.718758mm"
   height="10.583343mm"
   viewBox="0 0 35.718758 10.583343"
   version="1.1"
   id="svg8"
   inkscape:version="0.92.2 (5c3e80d, 2017-08-06)"
   sodipodi:docname="playstore-lrg.svg">
  <defs
     id="defs2">
    <linearGradient
       gradientUnits="userSpaceOnUse"
       gradientTransform="matrix(0.26458333,0,0,-0.26458333,111.78646,214.75238)"
       y2="166.50999"
       x2="15.02"
       y1="183.28999"
       x1="31.799999"
       id="a">
      <stop
         id="stop815"
         stop-color="#00a0ff"
         offset="0" />
      <stop
         id="stop817"
         stop-color="#00a1ff"
         offset=".01" />
      <stop
         id="stop819"
         stop-color="#00beff"
         offset=".26" />
      <stop
         id="stop821"
         stop-color="#00d2ff"
         offset=".51" />
      <stop
         id="stop823"
         stop-color="#00dfff"
         offset=".76" />
      <stop
         id="stop825"
         stop-color="#00e3ff"
         offset="1" />
    </linearGradient>
    <linearGradient
       gradientUnits="userSpaceOnUse"
       gradientTransform="matrix(0.26458333,0,0,-0.26458333,111.78646,214.75238)"
       y2="172"
       x2="19.639999"
       y1="172"
       x1="43.830002"
       id="b">
      <stop
         id="stop828"
         stop-color="#ffe000"
         offset="0" />
      <stop
         id="stop830"
         stop-color="#ffbd00"
         offset=".41" />
      <stop
         id="stop832"
         stop-color="orange"
         offset=".78" />
      <stop
         id="stop834"
         stop-color="#ff9c00"
         offset="1" />
    </linearGradient>
    <linearGradient
       gradientUnits="userSpaceOnUse"
       gradientTransform="matrix(0.26458333,0,0,-0.26458333,111.78646,214.75238)"
       y2="146.95"
       x2="12.07"
       y1="169.7"
       x1="34.830002"
       id="c">
      <stop
         id="stop837"
         stop-color="#ff3a44"
         offset="0" />
      <stop
         id="stop839"
         stop-color="#c31162"
         offset="1" />
    </linearGradient>
    <linearGradient
       gradientUnits="userSpaceOnUse"
       gradientTransform="matrix(0.26458333,0,0,-0.26458333,111.78646,214.75238)"
       y2="181.66"
       x2="27.459999"
       y1="191.82001"
       x1="17.299999"
       id="d">
      <stop
         id="stop842"
         stop-color="#32a071"
         offset="0" />
      <stop
         id="stop844"
         stop-color="#2da771"
         offset=".07" />
      <stop
         id="stop846"
         stop-color="#15cf74"
         offset=".48" />
      <stop
         id="stop848"
         stop-color="#06e775"
         offset=".8" />
      <stop
         id="stop850"
         stop-color="#00f076"
         offset="1" />
    </linearGradient>
  </defs>
  <sodipodi:namedview
     id="base"
     pagecolor="#ffffff"
     bordercolor="#666666"
     borderopacity="1.0"
     inkscape:pageopacity="0.0"
     inkscape:pageshadow="2"
     inkscape:zoom="5.6"
     inkscape:cx="119.33543"
     inkscape:cy="-43.454192"
     inkscape:document-units="mm"
     inkscape:current-layer="layer1"
     showgrid="false"
     fit-margin-top="0"
     fit-margin-left="0"
     fit-margin-right="0"
     fit-margin-bottom="0"
     inkscape:window-width="2560"
     inkscape:window-height="1387"
     inkscape:window-x="1358"
     inkscape:window-y="-8"
     inkscape:window-maximized="1" />
  <metadata
     id="metadata5">
    <rdf:RDF>
      <cc:Work
         rdf:about="">
        <dc:format>image/svg+xml</dc:format>
        <dc:type
           rdf:resource="http://purl.org/dc/dcmitype/StillImage" />
        <dc:title></dc:title>
      </cc:Work>
    </rdf:RDF>
  </metadata>
  <g
     inkscape:label="Layer 1"
     inkscape:groupmode="layer"
     id="layer1"
     transform="translate(-107.39248,-144.43936)">
    <g
       id="g947"
       transform="translate(-7.0398066,-19.513021)">
      <rect
         style="stroke-width:0.26458332"
         id="rect859"
         ry="1.3229166"
         rx="1.3229166"
         height="10.583333"
         width="35.71875"
         y="163.95238"
         x="114.4323" />
      <path
         id="path861"
         d="m 148.82813,164.16405 a 1.11125,1.11125 0 0 1 1.11125,1.11125 v 7.9375 a 1.11125,1.11125 0 0 1 -1.11125,1.11125 h -33.07292 a 1.11125,1.11125 0 0 1 -1.11125,-1.11125 v -7.9375 a 1.11125,1.11125 0 0 1 1.11125,-1.11125 h 33.07292 m 0,-0.21167 h -33.07292 a 1.3229166,1.3229166 0 0 0 -1.32292,1.32292 v 7.9375 a 1.3229166,1.3229166 0 0 0 1.32292,1.32292 h 33.07292 a 1.3229166,1.3229166 0 0 0 1.32291,-1.32292 v -7.9375 a 1.3229166,1.3229166 0 0 0 -1.32291,-1.32292 z"
         inkscape:connector-curvature="0"
         style="fill:#a6a6a6;stroke-width:0.26458332" />
      <path
         id="path863"
         d="m 132.461,169.70707 a 1.1244792,1.1244792 0 1 0 1.12977,1.12448 1.1086042,1.1086042 0 0 0 -1.12977,-1.12448 z m 0,1.8071 a 0.68262499,0.68262499 0 1 1 0.635,-0.68262 0.65087499,0.65087499 0 0 1 -0.635,0.68262 z m -2.46327,-1.8071 a 1.1244792,1.1244792 0 1 0 1.12713,1.12448 1.1086042,1.1086042 0 0 0 -1.12978,-1.12448 z m 0,1.8071 a 0.68262499,0.68262499 0 1 1 0.63235,-0.68262 0.65087499,0.65087499 0 0 1 -0.635,0.68262 z m -2.93423,-1.4605 v 0.47625 h 1.143 a 0.99747915,0.99747915 0 0 1 -0.26458,0.60061 1.1694583,1.1694583 0 0 1 -0.88106,0.34925 1.27,1.27 0 0 1 0,-2.54 1.2170833,1.2170833 0 0 1 0.86518,0.34131 l 0.33602,-0.33602 a 1.6642291,1.6642291 0 0 0 -1.19856,-0.49477 1.7488958,1.7488958 0 1 0 0,3.49515 1.5875,1.5875 0 0 0 1.21973,-0.48948 1.5875,1.5875 0 0 0 0.41275,-1.11655 1.5531041,1.5531041 0 0 0 -0.0265,-0.29897 z m 11.98827,0.37042 a 1.0583333,1.0583333 0 0 0 -0.96308,-0.71702 1.0583333,1.0583333 0 0 0 -1.05833,1.12448 1.1006667,1.1006667 0 0 0 1.11654,1.12448 1.1191875,1.1191875 0 0 0 0.93662,-0.49742 l -0.38364,-0.26458 a 0.64293749,0.64293749 0 0 1 -0.55298,0.31221 0.57149999,0.57149999 0 0 1 -0.54504,-0.34132 l 1.50547,-0.62177 z m -1.53458,0.37571 a 0.61647916,0.61647916 0 0 1 0.58737,-0.65617 0.43656249,0.43656249 0 0 1 0.41805,0.23813 z m -1.22238,1.09008 h 0.49477 v -3.30729 h -0.49477 z m -0.80962,-1.93146 h -0.0185 a 0.79374999,0.79374999 0 0 0 -0.59267,-0.26458 1.127125,1.127125 0 0 0 0,2.25161 0.76729166,0.76729166 0 0 0 0.59267,-0.26459 h 0.0159 v 0.1614 c 0,0.43127 -0.23018,0.66146 -0.6006,0.66146 a 0.62177083,0.62177083 0 0 1 -0.56621,-0.39952 l -0.43127,0.17991 a 1.0715625,1.0715625 0 0 0 0.99748,0.66411 c 0.57944,0 1.05833,-0.34132 1.05833,-1.17211 v -2.00289 h -0.45508 z m -0.56621,1.55575 a 0.68527082,0.68527082 0 0 1 0,-1.36525 0.63499999,0.63499999 0 0 1 0.6006,0.68263 0.62970833,0.62970833 0 0 1 -0.60325,0.68262 z m 6.45054,-2.93158 h -1.18269 v 3.30729 h 0.49478 v -1.25412 h 0.69056 a 1.0292292,1.0292292 0 1 0 0,-2.05317 z m 0,1.5875 h -0.69056 v -1.12712 h 0.70115 a 0.56753124,0.56753124 0 1 1 0,1.13506 z m 3.05065,-0.47625 a 0.92604165,0.92604165 0 0 0 -0.88106,0.50536 l 0.4392,0.18256 a 0.46831249,0.46831249 0 0 1 0.4498,-0.24342 0.47624999,0.47624999 0 0 1 0.52916,0.42598 v 0.0344 a 1.0927292,1.0927292 0 0 0 -0.51594,-0.127 c -0.4736,0 -0.9525,0.26458 -0.9525,0.74348 a 0.76464582,0.76464582 0 0 0 0.82021,0.7276 0.69585416,0.69585416 0 0 0 0.635,-0.3175 h 0.0159 v 0.26458 h 0.47625 v -1.27264 c 0,-0.57944 -0.43921,-0.91546 -1.00277,-0.91546 z m -0.0609,1.8124 c -0.16139,0 -0.38629,-0.082 -0.38629,-0.28046 0,-0.26458 0.28046,-0.3519 0.52917,-0.3519 a 0.87841666,0.87841666 0 0 1 0.44979,0.11113 0.59795833,0.59795833 0 0 1 -0.57944,0.52916 z m 2.81252,-1.73302 -0.5662,1.43404 h -0.0159 l -0.58737,-1.43404 h -0.52917 l 0.88106,2.00554 -0.50271,1.11389 h 0.51594 l 1.35467,-3.11943 z m -4.44764,2.11666 h 0.49477 v -3.30729 h -0.49477 z"
         inkscape:connector-curvature="0"
         style="fill:#ffffff;stroke-width:0.26458332" />
      <path
         id="path865"
         d="m 117.19454,165.94734 a 0.52916666,0.52916666 0 0 0 -0.12171,0.37042 v 5.85258 a 0.52916666,0.52916666 0 0 0 0.12171,0.37042 l 0.0185,0.0185 3.27819,-3.27554 v -0.0767 l -3.27819,-3.27819 z"
         inkscape:connector-curvature="0"
         style="fill:url(#a);stroke-width:0.26458332" />
      <path
         id="path867"
         d="m 121.57604,170.37647 -1.08479,-1.09273 v -0.0767 l 1.08479,-1.09538 0.0238,0.0132 1.2991,0.73819 c 0.37042,0.20902 0.37042,0.55298 0,0.76465 l -1.29381,0.73554 z"
         inkscape:connector-curvature="0"
         style="fill:url(#b);stroke-width:0.26458332" />
      <path
         id="path869"
         d="m 121.60779,170.36059 -1.11654,-1.11654 -3.29671,3.29671 a 0.43127083,0.43127083 0 0 0 0.55034,0.0159 l 3.86556,-2.19604"
         inkscape:connector-curvature="0"
         style="fill:url(#c);stroke-width:0.26458332" />
      <path
         id="path871"
         d="m 121.60779,168.12751 -3.86556,-2.19604 a 0.43127083,0.43127083 0 0 0 -0.55033,0.0159 l 3.29935,3.29671 z"
         inkscape:connector-curvature="0"
         style="fill:url(#d);stroke-width:0.26458332" />
      <path
         id="path873"
         style="opacity:0.2;isolation:isolate;stroke-width:0.26458332"
         d="m 121.57604,170.33678 -3.83381,2.18281 a 0.44185416,0.44185416 0 0 1 -0.52917,0 l -0.0185,0.0185 0.0185,0.0185 a 0.43920833,0.43920833 0 0 0 0.52917,0 l 3.86556,-2.19604 z"
         inkscape:connector-curvature="0" />
      <path
         id="path875"
         style="opacity:0.12000002;isolation:isolate;stroke-width:0.26458332"
         d="m 117.19454,172.50372 a 0.52916666,0.52916666 0 0 1 -0.12171,-0.37042 v 0.0397 a 0.52916666,0.52916666 0 0 0 0.12171,0.37041 l 0.0185,-0.0185 z m 5.70442,-2.91571 -1.32292,0.74877 0.0238,0.0238 1.2991,-0.73554 a 0.46302083,0.46302083 0 0 0 0.26458,-0.381 0.49212499,0.49212499 0 0 1 -0.26458,0.34396 z"
         inkscape:connector-curvature="0" />
      <path
         id="path877"
         style="opacity:0.25;isolation:isolate;fill:#ffffff;stroke-width:0.26458332"
         d="m 117.74223,165.96851 5.15673,2.93158 a 0.49212499,0.49212499 0 0 1 0.26458,0.34396 0.46302083,0.46302083 0 0 0 -0.26458,-0.381 l -5.15673,-2.93158 c -0.37042,-0.20902 -0.67204,-0.0344 -0.67204,0.38893 v 0.0397 c 0.008,-0.42598 0.30427,-0.6006 0.67204,-0.39158 z"
         inkscape:connector-curvature="0" />
      <path
         id="path879"
         stroke-miterlimit="10"
         d="m 125.35429,167.39197 v -1.5875 h 0.48684 a 0.79374999,0.79374999 0 0 1 0.58473,0.2196 0.77787499,0.77787499 0 0 1 0.2196,0.57415 0.77787499,0.77787499 0 0 1 -0.2196,0.57414 0.79374999,0.79374999 0 0 1 -0.58473,0.21961 z m 0.20373,-0.1958 h 0.28046 a 0.59531249,0.59531249 0 0 0 0.43656,-0.15875 0.59002083,0.59002083 0 0 0 0.1614,-0.4392 0.55297916,0.55297916 0 0 0 -0.59531,-0.59796 h -0.29634 z m 1.37319,0.1958 v -1.5875 h 0.20108 v 1.5875 z m 1.01335,0.0344 a 0.59266666,0.59266666 0 0 1 -0.33866,-0.11377 0.52916666,0.52916666 0 0 1 -0.21696,-0.3175 l 0.18521,-0.0741 a 0.42597916,0.42597916 0 0 0 0.13493,0.2196 0.34395833,0.34395833 0 0 0 0.23284,0.09 0.37041666,0.37041666 0 0 0 0.22754,-0.0688 0.22225,0.22225 0 0 0 0.0953,-0.1905 0.24341666,0.24341666 0 0 0 -0.0953,-0.20373 0.97631249,0.97631249 0 0 0 -0.29898,-0.13494 0.79374999,0.79374999 0 0 1 -0.32015,-0.17198 0.35983333,0.35983333 0 0 1 -0.10847,-0.26458 0.39422916,0.39422916 0 0 1 0.13493,-0.29633 0.49477083,0.49477083 0 0 1 0.34925,-0.12965 0.51064583,0.51064583 0 0 1 0.32809,0.10054 0.46566666,0.46566666 0 0 1 0.16404,0.21961 l -0.18521,0.0767 a 0.26458333,0.26458333 0 0 0 -0.0979,-0.14023 0.34660416,0.34660416 0 0 0 -0.40481,0 0.1984375,0.1984375 0 0 0 -0.082,0.16404 0.18520833,0.18520833 0 0 0 0.0767,0.15081 0.73554166,0.73554166 0 0 0 0.2249,0.10848 1.9129375,1.9129375 0 0 1 0.19579,0.0741 0.89429166,0.89429166 0 0 1 0.15875,0.0952 0.37570833,0.37570833 0 0 1 0.12171,0.14552 0.47360416,0.47360416 0 0 1 0.0423,0.20373 0.43656249,0.43656249 0 0 1 -0.0476,0.20638 0.38629166,0.38629166 0 0 1 -0.127,0.14287 0.62706249,0.62706249 0 0 1 -0.16933,0.082 0.63499999,0.63499999 0 0 1 -0.17992,0.0265 z m 1.03982,-0.0344 h -0.20373 v -1.5875 h 0.52916 a 0.50270833,0.50270833 0 0 1 0.34925,0.13493 0.46037499,0.46037499 0 0 1 0,0.67734 0.50006249,0.50006249 0 0 1 -0.34925,0.13493 h -0.32543 z m 0,-0.83873 h 0.34131 a 0.26458333,0.26458333 0 0 0 0.20637,-0.0873 0.26458333,0.26458333 0 0 0 0,-0.381 0.26458333,0.26458333 0 0 0 -0.20637,-0.0873 h -0.34131 z m 2.38125,0.63235 a 0.82549999,0.82549999 0 0 1 -1.16417,0 0.85724999,0.85724999 0 0 1 0,-1.17739 0.82020832,0.82020832 0 0 1 1.16417,0 0.85460416,0.85460416 0 0 1 0,1.17739 z m -1.01336,-0.13229 a 0.61118749,0.61118749 0 0 0 0.86254,0 0.67733332,0.67733332 0 0 0 0,-0.91017 0.61118749,0.61118749 0 0 0 -0.86254,0 0.67733332,0.67733332 0 0 0 0,0.91017 z m 1.52929,0.33867 v -1.5875 h 0.24871 l 0.77259,1.2356 v -1.2356 h 0.20372 v 1.5875 h -0.21166 l -0.80698,-1.29382 v 1.29382 z m 1.5875,0 v -1.5875 h 0.20373 v 1.5875 z m 0.56621,0 v -1.5875 h 0.57415 a 0.46566666,0.46566666 0 0 1 0.32279,0.1217 0.39952083,0.39952083 0 0 1 0.13758,0.30957 0.34660416,0.34660416 0 0 1 -0.0582,0.19843 0.36777083,0.36777083 0 0 1 -0.1561,0.12965 0.40216666,0.40216666 0 0 1 0.19315,0.13758 0.35983333,0.35983333 0 0 1 0.0767,0.22755 0.41539583,0.41539583 0 0 1 -0.14288,0.32279 0.48947916,0.48947916 0 0 1 -0.33867,0.12964 z m 0.20373,-0.90752 h 0.37042 a 0.238125,0.238125 0 0 0 0.18521,-0.0767 0.23547916,0.23547916 0 0 0 0.0106,-0.33867 0.22754166,0.22754166 0 0 0 -0.17727,-0.0767 H 134.239 Z m 0,0.71172 h 0.41011 a 0.24341666,0.24341666 0 0 0 0.1905,-0.082 0.26458333,0.26458333 0 0 0 0.0741,-0.17991 0.26458333,0.26458333 0 0 0 -0.26458,-0.26459 H 134.239 Z m 1.15888,0.1958 v -1.5875 h 0.20108 v 1.3917 h 0.68792 v 0.1958 z m 2.07433,-1.39171 h -0.72231 v 0.50271 h 0.65087 v 0.1905 h -0.65087 v 0.5027 h 0.72231 v 0.1958 h -0.92604 v -1.5875 h 0.92604 z m 1.23296,1.4261 a 0.59266666,0.59266666 0 0 1 -0.33867,-0.11377 0.52916666,0.52916666 0 0 1 -0.21696,-0.3175 l 0.18521,-0.0741 a 0.42597916,0.42597916 0 0 0 0.13494,0.2196 0.34395833,0.34395833 0 0 0 0.23283,0.09 0.37041666,0.37041666 0 0 0 0.22754,-0.0688 0.22225,0.22225 0 0 0 0.0952,-0.1905 0.24341666,0.24341666 0 0 0 -0.0952,-0.20373 0.97631249,0.97631249 0 0 0 -0.29898,-0.13494 0.79374999,0.79374999 0 0 1 -0.32014,-0.17198 0.35983333,0.35983333 0 0 1 -0.10848,-0.26458 0.39422916,0.39422916 0 0 1 0.13494,-0.29633 0.49477083,0.49477083 0 0 1 0.35189,-0.127 0.51064583,0.51064583 0 0 1 0.32809,0.10054 0.46566666,0.46566666 0 0 1 0.16404,0.2196 l -0.18521,0.0767 a 0.26458333,0.26458333 0 0 0 -0.0979,-0.14023 0.34660416,0.34660416 0 0 0 -0.40481,0 0.1984375,0.1984375 0 0 0 -0.082,0.16404 0.18520833,0.18520833 0 0 0 0.0767,0.15082 0.73554166,0.73554166 0 0 0 0.2249,0.10848 1.9155833,1.9155833 0 0 1 0.19579,0.0741 0.89429166,0.89429166 0 0 1 0.15875,0.0952 0.37570833,0.37570833 0 0 1 0.12171,0.14552 0.47360416,0.47360416 0 0 1 0.0423,0.20373 0.43656249,0.43656249 0 0 1 -0.0476,0.20637 0.38629166,0.38629166 0 0 1 -0.127,0.14288 0.62706249,0.62706249 0 0 1 -0.16933,0.082 0.63499999,0.63499999 0 0 1 -0.18256,0.0238 z m 1.37583,0 a 0.55827083,0.55827083 0 0 1 -0.42598,-0.17198 0.63235416,0.63235416 0 0 1 -0.16404,-0.45243 v -0.99748 h 0.20373 v 1.00541 a 0.45508333,0.45508333 0 0 0 0.0979,0.30427 0.40745833,0.40745833 0 0 0 0.56885,0.0132 0.45508333,0.45508333 0 0 0 0.0979,-0.30427 v -1.01864 h 0.20372 v 0.99748 a 0.64293749,0.64293749 0 0 1 -0.15875,0.45243 0.55562499,0.55562499 0 0 1 -0.42333,0.17198 z m 0.91546,-0.0344 v -1.5875 h 0.52917 a 0.50270833,0.50270833 0 0 1 0.34925,0.13493 0.45772916,0.45772916 0 0 1 0.0397,0.63236 0.47095833,0.47095833 0 0 1 -0.26458,0.16139 l 0.4445,0.65882 h -0.24077 l -0.43392,-0.64294 h -0.22754 v 0.64294 z m 0.20373,-0.83344 h 0.32808 a 0.29897916,0.29897916 0 0 0 0.20902,-0.0794 0.26458333,0.26458333 0 0 0 0.0873,-0.20108 0.28045833,0.28045833 0 0 0 -0.0767,-0.1905 0.26458333,0.26458333 0 0 0 -0.20638,-0.0873 h -0.34131 z"
         inkscape:connector-curvature="0"
         style="fill:#ffffff;stroke:#ffffff;stroke-width:0.05291667;stroke-miterlimit:10" />
    </g>
  </g>
</svg>
